<svg width="70" height="70" viewBox="0 0 70 70" fill="none" xmlns="http://www.w3.org/2000/svg">
<path d="M35 65.3334C30.8194 65.3334 26.8941 64.5313 23.224 62.9271C19.5538 61.3229 16.3455 59.1476 13.599 56.4011C10.8524 53.6545 8.67709 50.4462 7.07292 46.7761C5.46875 43.1059 4.66667 39.1806 4.66667 35C4.66667 30.8195 5.46875 26.8941 7.07292 23.224C8.67709 19.5538 10.8524 16.3455 13.599 13.599C16.3455 10.8525 19.5538 8.6771 23.224 7.07294C26.8941 5.46877 30.8194 4.66669 35 4.66669C39.1806 4.66669 43.1059 5.46877 46.776 7.07294C50.4462 8.6771 53.6545 10.8525 56.401 13.599C59.1476 16.3455 61.3229 19.5538 62.9271 23.224C64.5313 26.8941 65.3333 30.8195 65.3333 35C65.3333 39.1806 64.5313 43.1059 62.9271 46.7761C61.3229 50.4462 59.1476 53.6545 56.401 56.4011C53.6545 59.1476 50.4462 61.3229 46.776 62.9271C43.1059 64.5313 39.1806 65.3334 35 65.3334ZM50.3854 27.6354L55.125 25.9584L56.3646 21.5834C54.7118 19.0556 52.6823 16.8802 50.276 15.0573C47.8698 13.2344 45.184 11.8368 42.2188 10.8646L37.6979 13.8542V18.6667L50.3854 27.6354ZM19.6875 27.6354L32.3021 18.6667V13.8542L27.8542 10.8646C24.8889 11.8368 22.191 13.2344 19.7604 15.0573C17.3299 16.8802 15.2882 19.0556 13.6354 21.5834L15.1667 25.9584L19.6875 27.6354ZM15.9688 51.5521L19.9792 51.1146L22.6042 46.5209L18.0833 32.6667L13.1979 30.9896L9.98959 33.6875C9.98959 37.1389 10.3906 40.2865 11.1927 43.1302C11.9948 45.974 13.5868 48.7813 15.9688 51.5521V51.5521ZM35 60.0104C36.3125 60.0104 37.6372 59.9011 38.974 59.6823C40.3108 59.4636 41.684 59.1597 43.0938 58.7709L45.3542 53.7396L43.2396 50.0209H26.8333L24.6458 53.7396L26.9792 58.7709C28.2431 59.1597 29.5677 59.4636 30.9531 59.6823C32.3385 59.9011 33.6875 60.0104 35 60.0104ZM27.3438 44.6979H42.2917L46.7396 31.6459L35 23.2604L23.1146 31.6459L27.3438 44.6979ZM54.1042 51.5521C56.4375 48.7813 58.0052 45.974 58.8073 43.1302C59.6094 40.2865 60.0104 37.1389 60.0104 33.6875L56.7292 31.4271L51.9896 32.6667L47.4688 46.5209L50.0208 51.1146L54.1042 51.5521Z" fill="#F7DD43"/>
</svg>
