<svg width="48" height="48" viewBox="0 0 48 48" fill="none" xmlns="http://www.w3.org/2000/svg">
<path d="M11.95 42.85C11.1834 42.85 10.525 42.5667 9.97503 42C9.42503 41.4334 9.15002 40.7834 9.15002 40.05V7.95002C9.15002 7.21669 9.42503 6.56669 9.97503 6.00002C10.525 5.43336 11.1834 5.15002 11.95 5.15002H29.25L38.85 14.75V40.05C38.85 40.7834 38.575 41.4334 38.025 42C37.475 42.5667 36.8167 42.85 36.05 42.85H11.95ZM28.15 15.75V7.35002H11.95C11.7834 7.35002 11.6417 7.41669 11.525 7.55002C11.4084 7.68336 11.35 7.81669 11.35 7.95002V40.05C11.35 40.1834 11.4084 40.3167 11.525 40.45C11.6417 40.5834 11.7834 40.65 11.95 40.65H36.05C36.2167 40.65 36.3584 40.5834 36.475 40.45C36.5917 40.3167 36.65 40.1834 36.65 40.05V15.75H28.15ZM11.35 7.35002V15.75V7.35002V40.65V7.35002Z" fill="#75789D"/>
<path d="M24 35.6666C22.8055 35.6666 21.684 35.4375 20.6354 34.9791C19.5868 34.5208 18.6701 33.8993 17.8854 33.1146C17.1007 32.3298 16.4791 31.4132 16.0208 30.3646C15.5625 29.316 15.3333 28.1944 15.3333 27C15.3333 25.8055 15.5625 24.684 16.0208 23.6354C16.4791 22.5868 17.1007 21.6701 17.8854 20.8854C18.6701 20.1007 19.5868 19.4791 20.6354 19.0208C21.684 18.5625 22.8055 18.3333 24 18.3333C25.1944 18.3333 26.316 18.5625 27.3646 19.0208C28.4132 19.4791 29.3298 20.1007 30.1146 20.8854C30.8993 21.6701 31.5208 22.5868 31.9791 23.6354C32.4375 24.684 32.6666 25.8055 32.6666 27C32.6666 28.1944 32.4375 29.316 31.9791 30.3646C31.5208 31.4132 30.8993 32.3298 30.1146 33.1146C29.3298 33.8993 28.4132 34.5208 27.3646 34.9791C26.316 35.4375 25.1944 35.6666 24 35.6666ZM28.3958 24.8958L29.75 24.4166L30.1041 23.1666C29.6319 22.4444 29.0521 21.8229 28.3646 21.3021C27.6771 20.7812 26.9097 20.3819 26.0625 20.1041L24.7708 20.9583V22.3333L28.3958 24.8958ZM19.625 24.8958L23.2291 22.3333V20.9583L21.9583 20.1041C21.1111 20.3819 20.3403 20.7812 19.6458 21.3021C18.9514 21.8229 18.368 22.4444 17.8958 23.1666L18.3333 24.4166L19.625 24.8958ZM18.5625 31.7291L19.7083 31.6041L20.4583 30.2916L19.1666 26.3333L17.7708 25.8541L16.8541 26.625C16.8541 27.6111 16.9687 28.5104 17.1979 29.3229C17.4271 30.1354 17.8819 30.9375 18.5625 31.7291V31.7291ZM24 34.1458C24.375 34.1458 24.7535 34.1146 25.1354 34.0521C25.5173 33.9896 25.9097 33.9028 26.3125 33.7916L26.9583 32.3541L26.3541 31.2916H21.6666L21.0416 32.3541L21.7083 33.7916C22.0694 33.9028 22.4479 33.9896 22.8437 34.0521C23.2396 34.1146 23.625 34.1458 24 34.1458ZM21.8125 29.7708H26.0833L27.3541 26.0416L24 23.6458L20.6041 26.0416L21.8125 29.7708ZM29.4583 31.7291C30.125 30.9375 30.5729 30.1354 30.8021 29.3229C31.0312 28.5104 31.1458 27.6111 31.1458 26.625L30.2083 25.9791L28.8541 26.3333L27.5625 30.2916L28.2916 31.6041L29.4583 31.7291Z" fill="#75789D"/>
</svg>
