<svg width="48" height="48" viewBox="0 0 48 48" fill="none" xmlns="http://www.w3.org/2000/svg">
<path d="M24 28.15C23.5 28.15 23.0834 27.975 22.75 27.625C22.4167 27.275 22.25 26.8667 22.25 26.4C22.25 25.9 22.4167 25.4834 22.75 25.15C23.0834 24.8167 23.5 24.65 24 24.65C24.5 24.65 24.9167 24.8167 25.25 25.15C25.5834 25.4834 25.75 25.9 25.75 26.4C25.75 26.8667 25.5834 27.275 25.25 27.625C24.9167 27.975 24.5 28.15 24 28.15ZM16 28.15C15.5 28.15 15.0834 27.975 14.75 27.625C14.4167 27.275 14.25 26.8667 14.25 26.4C14.25 25.9 14.4167 25.4834 14.75 25.15C15.0834 24.8167 15.5 24.65 16 24.65C16.5 24.65 16.9167 24.8167 17.25 25.15C17.5834 25.4834 17.75 25.9 17.75 26.4C17.75 26.8667 17.5834 27.275 17.25 27.625C16.9167 27.975 16.5 28.15 16 28.15ZM32 28.15C31.5 28.15 31.0834 27.975 30.75 27.625C30.4167 27.275 30.25 26.8667 30.25 26.4C30.25 25.9 30.4167 25.4834 30.75 25.15C31.0834 24.8167 31.5 24.65 32 24.65C32.5 24.65 32.9167 24.8167 33.25 25.15C33.5834 25.4834 33.75 25.9 33.75 26.4C33.75 26.8667 33.5834 27.275 33.25 27.625C32.9167 27.975 32.5 28.15 32 28.15ZM24 36C23.5 36 23.0834 35.825 22.75 35.475C22.4167 35.125 22.25 34.7167 22.25 34.25C22.25 33.75 22.4167 33.3334 22.75 33C23.0834 32.6667 23.5 32.5 24 32.5C24.5 32.5 24.9167 32.6667 25.25 33C25.5834 33.3334 25.75 33.75 25.75 34.25C25.75 34.7167 25.5834 35.125 25.25 35.475C24.9167 35.825 24.5 36 24 36ZM16 36C15.5 36 15.0834 35.825 14.75 35.475C14.4167 35.125 14.25 34.7167 14.25 34.25C14.25 33.75 14.4167 33.3334 14.75 33C15.0834 32.6667 15.5 32.5 16 32.5C16.5 32.5 16.9167 32.6667 17.25 33C17.5834 33.3334 17.75 33.75 17.75 34.25C17.75 34.7167 17.5834 35.125 17.25 35.475C16.9167 35.825 16.5 36 16 36ZM32 36C31.5 36 31.0834 35.825 30.75 35.475C30.4167 35.125 30.25 34.7167 30.25 34.25C30.25 33.75 30.4167 33.3334 30.75 33C31.0834 32.6667 31.5 32.5 32 32.5C32.5 32.5 32.9167 32.6667 33.25 33C33.5834 33.3334 33.75 33.75 33.75 34.25C33.75 34.7167 33.5834 35.125 33.25 35.475C32.9167 35.825 32.5 36 32 36ZM9.95002 42.85C9.18336 42.85 8.52502 42.5667 7.97502 42C7.42502 41.4334 7.15002 40.7834 7.15002 40.05V11.2C7.15002 10.4334 7.42502 9.77502 7.97502 9.22502C8.52502 8.67502 9.18336 8.40002 9.95002 8.40002H13.7V4.90002H16.15V8.40002H31.9V4.90002H34.3V8.40002H38.05C38.8167 8.40002 39.475 8.67502 40.025 9.22502C40.575 9.77502 40.85 10.4334 40.85 11.2V40.05C40.85 40.7834 40.575 41.4334 40.025 42C39.475 42.5667 38.8167 42.85 38.05 42.85H9.95002ZM9.95002 40.65H38.05C38.2167 40.65 38.3584 40.5834 38.475 40.45C38.5917 40.3167 38.65 40.1834 38.65 40.05V20.3H9.35002V40.05C9.35002 40.1834 9.40836 40.3167 9.52502 40.45C9.64169 40.5834 9.78336 40.65 9.95002 40.65V40.65Z" fill="#75789D"/>
</svg>
