<svg width="246" height="54" viewBox="0 0 246 54" fill="none" xmlns="http://www.w3.org/2000/svg">
<path d="M12.3028 52.9958C8.02207 52.9958 3.52478 52.1846 0 50.2311V15.7647C3.46958 13.8664 7.96686 13.0001 12.3028 13.0001C16.6387 13.0001 21.0298 13.8112 24.4951 15.7647V28.989H15.7681V19.9902C14.7404 19.557 13.4919 19.3956 12.2476 19.3956C11.0033 19.3956 9.8609 19.557 8.77799 19.9902V46.0056C9.8057 46.4388 10.999 46.6002 12.2476 46.6002C13.4961 46.6002 14.6852 46.4388 15.7681 46.0056V37.0111H24.4951V50.2354C21.0808 52.1337 16.5835 52.9448 12.3028 53V52.9958Z" fill="#F7DD43"/>
<path d="M40.8622 52.9957C36.2545 52.9957 31.8124 52.0189 28.2876 50.0145V15.926C31.7572 13.9767 36.2035 13 40.8622 13C45.5209 13 49.8568 13.9215 53.3264 15.926V50.0145C49.912 52.0189 45.4147 52.9405 40.8622 52.9957ZM44.6036 20.1005C43.5759 19.6674 42.3273 19.4508 40.8112 19.4508C39.2952 19.4508 38.1018 19.6674 37.0699 20.1005V45.8442C38.0976 46.3326 39.3461 46.5492 40.8112 46.5492C42.2764 46.5492 43.5207 46.3326 44.6036 45.8442V20.1005Z" fill="#F7DD43"/>
<path d="M68.555 38.3615H66.2235V52.5073H57.3903V13.4884H68.555C73.8676 13.4884 77.8765 14.5713 81.0191 16.7924V35.0575C77.9317 37.2276 73.8634 38.3615 68.555 38.3615ZM72.2411 20.2067C71.43 19.6122 70.3428 19.3404 68.4997 19.3404H66.1131V32.5095H68.4997C70.2876 32.5095 71.3705 32.2377 72.2411 31.6984V20.2067Z" fill="#F7DD43"/>
<path d="M99.4966 52.5073V38.3615H92.9949V52.5073H84.2169V15.8708C87.4147 13.9725 91.912 13 96.2479 13C100.584 13 105.026 13.9767 108.224 15.8708V52.5073H99.4966ZM99.4966 19.7735C98.5751 19.3404 97.437 19.1238 96.2436 19.1238C95.0503 19.1238 93.9122 19.3404 92.9906 19.7735V32.1825H99.4924V19.7735H99.4966Z" fill="#F7DD43"/>
<path d="M147.082 46.4741V53H120.065V47.4678L132.687 34.0938C133.869 32.7331 134.809 31.5335 135.507 30.4951C136.223 29.4567 136.742 28.5168 137.064 27.6753C137.387 26.8159 137.548 26.0282 137.548 25.312C137.548 24.1483 137.36 23.1636 136.984 22.3579C136.626 21.5522 136.098 20.9346 135.399 20.5049C134.701 20.0752 133.851 19.8604 132.848 19.8604C131.774 19.8604 130.852 20.1379 130.082 20.6929C129.312 21.2479 128.721 22.0177 128.31 23.0024C127.898 23.9692 127.692 25.0703 127.692 26.3057H119.259C119.259 23.9245 119.832 21.7581 120.978 19.8066C122.124 17.8372 123.726 16.2707 125.785 15.1069C127.844 13.9253 130.252 13.3345 133.009 13.3345C135.838 13.3345 138.21 13.7821 140.126 14.6772C142.042 15.5724 143.492 16.8525 144.477 18.5176C145.461 20.1826 145.954 22.1878 145.954 24.5332C145.954 25.8581 145.739 27.1382 145.309 28.3735C144.897 29.6089 144.298 30.8353 143.51 32.0527C142.722 33.2702 141.773 34.5145 140.663 35.7856C139.553 37.0389 138.3 38.3638 136.903 39.7603L130.995 46.4741H147.082ZM178.529 29.958V36.9136C178.529 39.7782 178.207 42.2578 177.562 44.3525C176.936 46.4473 176.023 48.175 174.823 49.5356C173.642 50.8963 172.227 51.9079 170.58 52.5703C168.951 53.2148 167.143 53.5371 165.155 53.5371C163.562 53.5371 162.076 53.3312 160.697 52.9194C159.319 52.5076 158.074 51.8721 156.964 51.0127C155.872 50.1354 154.932 49.0433 154.145 47.7363C153.357 46.4294 152.748 44.8717 152.318 43.0635C151.907 41.2552 151.701 39.2052 151.701 36.9136V29.958C151.701 27.0576 152.014 24.569 152.641 22.4922C153.285 20.4154 154.207 18.6966 155.407 17.3359C156.606 15.9753 158.021 14.9727 159.65 14.3281C161.297 13.6836 163.114 13.3613 165.102 13.3613C166.695 13.3613 168.172 13.5672 169.533 13.979C170.911 14.3908 172.156 15.0264 173.266 15.8857C174.376 16.7451 175.316 17.8283 176.085 19.1353C176.873 20.4422 177.473 21.9998 177.885 23.8081C178.314 25.5985 178.529 27.6484 178.529 29.958ZM170.15 37.9609V28.8569C170.15 27.5142 170.07 26.3504 169.909 25.3657C169.765 24.3631 169.551 23.5127 169.264 22.8145C168.996 22.1162 168.655 21.5522 168.244 21.1226C167.832 20.6929 167.357 20.3796 166.82 20.1826C166.301 19.9678 165.728 19.8604 165.102 19.8604C164.314 19.8604 163.607 20.0215 162.98 20.3438C162.353 20.666 161.825 21.1763 161.396 21.8745C160.966 22.5549 160.635 23.4769 160.402 24.6406C160.187 25.7865 160.08 27.1919 160.08 28.8569V37.9609C160.08 39.3037 160.151 40.4764 160.294 41.479C160.456 42.4816 160.67 43.341 160.939 44.0571C161.225 44.7554 161.575 45.3283 161.986 45.7759C162.398 46.2056 162.873 46.5189 163.41 46.7158C163.947 46.9128 164.529 47.0112 165.155 47.0112C165.943 47.0112 166.641 46.859 167.25 46.5547C167.859 46.2324 168.378 45.7222 168.808 45.0239C169.255 44.3078 169.586 43.3678 169.801 42.2041C170.034 41.0404 170.15 39.626 170.15 37.9609ZM210.568 46.4741V53H183.551V47.4678L196.173 34.0938C197.355 32.7331 198.295 31.5335 198.993 30.4951C199.709 29.4567 200.229 28.5168 200.551 27.6753C200.873 26.8159 201.034 26.0282 201.034 25.312C201.034 24.1483 200.846 23.1636 200.47 22.3579C200.112 21.5522 199.584 20.9346 198.886 20.5049C198.188 20.0752 197.337 19.8604 196.334 19.8604C195.26 19.8604 194.338 20.1379 193.568 20.6929C192.799 21.2479 192.208 22.0177 191.796 23.0024C191.384 23.9692 191.178 25.0703 191.178 26.3057H182.746C182.746 23.9245 183.319 21.7581 184.464 19.8066C185.61 17.8372 187.213 16.2707 189.271 15.1069C191.33 13.9253 193.738 13.3345 196.496 13.3345C199.324 13.3345 201.697 13.7821 203.612 14.6772C205.528 15.5724 206.978 16.8525 207.963 18.5176C208.948 20.1826 209.44 22.1878 209.44 24.5332C209.44 25.8581 209.225 27.1382 208.795 28.3735C208.384 29.6089 207.784 30.8353 206.996 32.0527C206.208 33.2702 205.259 34.5145 204.149 35.7856C203.039 37.0389 201.786 38.3638 200.39 39.7603L194.481 46.4741H210.568ZM242.311 46.4741V53H215.294V47.4678L227.917 34.0938C229.098 32.7331 230.038 31.5335 230.736 30.4951C231.452 29.4567 231.972 28.5168 232.294 27.6753C232.616 26.8159 232.777 26.0282 232.777 25.312C232.777 24.1483 232.589 23.1636 232.213 22.3579C231.855 21.5522 231.327 20.9346 230.629 20.5049C229.931 20.0752 229.08 19.8604 228.078 19.8604C227.003 19.8604 226.081 20.1379 225.312 20.6929C224.542 21.2479 223.951 22.0177 223.539 23.0024C223.127 23.9692 222.921 25.0703 222.921 26.3057H214.489C214.489 23.9245 215.062 21.7581 216.208 19.8066C217.353 17.8372 218.956 16.2707 221.015 15.1069C223.074 13.9253 225.482 13.3345 228.239 13.3345C231.068 13.3345 233.44 13.7821 235.355 14.6772C237.271 15.5724 238.721 16.8525 239.706 18.5176C240.691 20.1826 241.183 22.1878 241.183 24.5332C241.183 25.8581 240.968 27.1382 240.539 28.3735C240.127 29.6089 239.527 30.8353 238.739 32.0527C237.951 33.2702 237.003 34.5145 235.893 35.7856C234.783 37.0389 233.529 38.3638 232.133 39.7603L226.225 46.4741H242.311Z" fill="#F7DD43"/>
</svg>
